<svg id="a4e8774e-2572-4b16-bf11-2395c73803ca" data-name="Capa 1" xmlns="http://www.w3.org/2000/svg" viewBox="0 0 391.15 368.45"><title>logo ICEP</title><path d="M.31,274.51v-50.4H14.94v50.4Z" style="fill:#d42138"/><path d="M53.34,274.51l-16.12-34v34H23.55v-50.4H43.76l16,33.55V224.11H73.4v50.4Z" style="fill:#d42138"/><path d="M99.32,223.17a47.27,47.27,0,0,1,9.17.9,51.3,51.3,0,0,1,8.51,2.41L116,237c-1.19-.47-2.44-.93-3.75-1.36s-2.63-.82-3.94-1.16-2.59-.6-3.82-.79a17.74,17.74,0,0,0-3.49-.21,7.57,7.57,0,0,0-4,1,3,3,0,0,0-1.34,2.81,3.08,3.08,0,0,0,1,2.23,12.73,12.73,0,0,0,2.49,1.91,26.26,26.26,0,0,0,3.27,1.66c1.19.5,2.32,1,3.41,1.4a54.46,54.46,0,0,1,5.54,2.7,19.29,19.29,0,0,1,3.9,2.85,11.67,11.67,0,0,1,3,4.57,16.85,16.85,0,0,1,.85,5.43,15.08,15.08,0,0,1-1.56,7.13,13.91,13.91,0,0,1-4.2,4.86,17.34,17.34,0,0,1-6.16,2.77,28.89,28.89,0,0,1-7.39.8A38.58,38.58,0,0,1,89.36,274a34.81,34.81,0,0,1-9.13-4.14l.89-10.23a33.34,33.34,0,0,0,8.8,4.14,24,24,0,0,0,8.28,1.19,7.07,7.07,0,0,0,4.24-1.33,4,4,0,0,0,1.48-3,3.59,3.59,0,0,0-.85-2.56,9.89,9.89,0,0,0-2.49-2.05c-.89-.48-1.91-1-3-1.44s-2.31-1-3.5-1.44-2.36-1-3.52-1.51a25.18,25.18,0,0,1-3.23-1.73,15.26,15.26,0,0,1-5.65-5.43,14.69,14.69,0,0,1-1.56-8,12.25,12.25,0,0,1,1.75-6.19A13.05,13.05,0,0,1,86,226.09a18.42,18.42,0,0,1,6.06-2.34,36.12,36.12,0,0,1,7.39-.72Z" style="fill:#d42138"/><path d="M151.61,234.4v40.11H137V234.4H123.31V224.11h42V234.4Z" style="fill:#d42138"/><path d="M171.51,274.51v-50.4h14.64v50.4Z" style="fill:#d42138"/><path d="M220.68,234.4v40.11H206.05V234.4H192.38V224.11h42.05V234.4Z" style="fill:#d42138"/><path d="M288.2,256.22a19.55,19.55,0,0,1-1.63,8.24,16.48,16.48,0,0,1-4.72,6.05,20.64,20.64,0,0,1-7.5,3.74,39.64,39.64,0,0,1-19.83,0,20.64,20.64,0,0,1-7.5-3.74,16.48,16.48,0,0,1-4.72-6.05,19.55,19.55,0,0,1-1.64-8.24V224.11H255.3v32.11c0,3,.76,5.21,2.3,6.55s3.79,2,6.76,2,5.22-.68,6.76-2,2.3-3.53,2.3-6.55V224.11h14.63Z" style="fill:#d42138"/><path d="M322.15,234.4v40.11H307.51V234.4H293.85V224.11h42V234.4Z" style="fill:#d42138"/><path d="M364.63,223.1a30,30,0,0,1,12.07,2.19,23.4,23.4,0,0,1,8.25,5.84,22.68,22.68,0,0,1,4.71,8.38,32.55,32.55,0,0,1,.12,19.08,23.6,23.6,0,0,1-4.5,8.46,23.11,23.11,0,0,1-8.17,6.16,29.31,29.31,0,0,1-12.48,2.38,30.46,30.46,0,0,1-12.07-2.16,22.59,22.59,0,0,1-13-14.15,32.18,32.18,0,0,1-1.52-9.9,32.51,32.51,0,0,1,1.41-9.33,23.36,23.36,0,0,1,4.57-8.46,24,24,0,0,1,8.21-6.12A29.09,29.09,0,0,1,364.63,223.1Zm-.07,10.08a9.94,9.94,0,0,0-8.84,4.71,15.43,15.43,0,0,0-2,5.12,31.16,31.16,0,0,0,0,12.27,16.14,16.14,0,0,0,2,5.15,10.49,10.49,0,0,0,3.56,3.6,11.5,11.5,0,0,0,10.66,0,10.85,10.85,0,0,0,3.57-3.5,15.29,15.29,0,0,0,2-5.11,29,29,0,0,0,.63-6.15,30.07,30.07,0,0,0-.59-5.94,16.35,16.35,0,0,0-1.93-5.15,10.67,10.67,0,0,0-3.53-3.6,10,10,0,0,0-5.39-1.37Z" style="fill:#d42138"/><path d="M0,367.08V298.44H19.93v68.64Z" style="fill:#d42138"/><path d="M130.89,297.06a54.71,54.71,0,0,1,9.71.69,61.18,61.18,0,0,1,9.81,2.45l-1.21,14a41.29,41.29,0,0,0-9.86-2.64,31.92,31.92,0,0,0-9.67.09,19.1,19.1,0,0,0-12.34,6.38q-4.55,5.29-4.55,14.71,0,9.21,4.5,14.61a18.75,18.75,0,0,0,12.39,6.47,31.59,31.59,0,0,0,9.67.1,41.31,41.31,0,0,0,9.86-2.65l1.21,14a62.26,62.26,0,0,1-9.81,2.45,53.77,53.77,0,0,1-9.71.68,46.09,46.09,0,0,1-15.63-2.74A37.23,37.23,0,0,1,103,358.35a32.63,32.63,0,0,1-8-11.23,37.62,37.62,0,0,1,0-28.63,32.9,32.9,0,0,1,8-11.23,37.18,37.18,0,0,1,12.24-7.4A45.65,45.65,0,0,1,130.89,297.06Z" style="fill:#d42138"/><path d="M238.75,312.46V325.4h29.33v14H238.75v13.63h31.76v14H218.82V298.44h51.29v14Z" style="fill:#d42138"/><path d="M359.79,298.44q16,0,23.67,5.93t7.69,16.42q0,10.6-7.74,16.63t-23.72,6h-8.91v23.63H330.85V298.44Zm-9.11,31.87h7.19q6.87,0,9.81-2.41t2.93-7.11q0-4.5-2.88-6.81T358,311.67h-7.08Z" style="fill:#d42138"/><rect x="105.57" width="184.6" height="24.51" style="fill:#107f72"/><rect x="105.57" y="33.32" width="184.6" height="24.51" style="fill:#107f72"/><rect x="129.38" y="86.11" width="133.66" height="28.09" transform="translate(296.36 -96.06) rotate(90)" style="fill:#107f72"/><rect x="-52.79" y="86.11" width="133.66" height="28.09" transform="translate(114.19 86.11) rotate(90)" style="fill:#107f72"/><rect x="310.28" y="86.11" width="133.66" height="28.09" transform="translate(477.26 -276.96) rotate(90)" style="fill:#107f72"/><rect y="143.23" width="165.06" height="23.74" style="fill:#107f72"/><rect x="227.36" y="143.23" width="163.79" height="23.74" style="fill:#107f72"/><rect x="301.4" y="33.32" width="89.74" height="23.74" style="fill:#107f72"/><rect y="33.32" width="93.99" height="23.74" style="fill:#107f72"/><rect y="177.94" width="391.15" height="24" style="fill:#107f72"/></svg>