<?xml version="1.0" encoding="utf-8"?>
<!-- Generator: Adobe Illustrator 25.4.1, SVG Export Plug-In . SVG Version: 6.00 Build 0)  -->
<svg version="1.1" id="Capa_1" xmlns="http://www.w3.org/2000/svg" xmlns:xlink="http://www.w3.org/1999/xlink" x="0px" y="0px"
	 viewBox="0 0 52.3 56.1" style="enable-background:new 0 0 52.3 56.1;" xml:space="preserve">
<style type="text/css">
	.st0{fill:#32CCD0;}
</style>
<g id="f7c682bd-08d8-4826-977f-0ff01572e573">
	<g id="a14b0767-af58-4b70-b23f-4be657991ec8">
		<path class="st0" d="M51.3,43.9c-0.8-1.1-1.8-2.1-2.8-3c-1.7-1.7-3.6-3.1-5.7-4.3c-2.1-1.3-4.8-1-6.6,0.7c-1.1,1-2.2,2-3.3,3
			c-1,1-2.5,1.5-3.9,1.1c-1.8-0.5-3.5-1.4-4.9-2.7c-2.9-2.5-5.5-5.4-7.7-8.6c-0.9-1.4-1.7-2.8-2.4-4.4c-1-2.6-0.6-4.6,1.8-6.2
			c1.1-0.8,2.2-1.8,3.3-2.7c0.8-0.7,1.3-1.6,1.5-2.7c0.3-1.6,0-3.3-0.8-4.7c-1.2-2.1-2.5-4.1-3.9-6.2c-0.9-1.5-2.2-2.6-3.9-3.2h-1.2
			c-1.1,0.4-2.2,1-3,1.9C7.5,2.3,7.1,2.6,6.7,3C2.3,6.4-0.2,11.7,0,17.2c0.1,3.5,0.9,6.9,2.3,10c1.8,4,4.2,7.8,7,11.3
			c3.8,4.9,8.2,9.2,13.3,12.8c3.6,2.6,7.8,4.2,12.2,4.7c3.6,0.4,7.3-0.4,10.5-2.2c2-1.3,3.9-2.8,5.6-4.6c1.6-1.2,1.9-3.5,0.7-5.1
			C51.5,44.1,51.4,44,51.3,43.9z"/>
	</g>
</g>
</svg>
