<svg xmlns="http://www.w3.org/2000/svg" viewBox="0 0 52.32 56.08"><title>Recurso 2</title><g id="f7c682bd-08d8-4826-977f-0ff01572e573" data-name="Capa 2"><g id="a14b0767-af58-4b70-b23f-4be657991ec8" data-name="Capa 1"><path d="M51.34,43.87a23.92,23.92,0,0,0-2.79-3,27.35,27.35,0,0,0-5.7-4.32,5.5,5.5,0,0,0-6.59.71c-1.13,1-2.2,2-3.29,3a4.1,4.1,0,0,1-3.91,1.13,11.31,11.31,0,0,1-4.87-2.72,43.3,43.3,0,0,1-7.73-8.6,22.93,22.93,0,0,1-2.35-4.36c-1-2.58-.58-4.6,1.76-6.22a34,34,0,0,0,3.27-2.73,4.93,4.93,0,0,0,1.54-2.66,6.68,6.68,0,0,0-.83-4.74C18.67,7.29,17.38,5.21,16,3.18A7.23,7.23,0,0,0,12.12,0H10.91a7.47,7.47,0,0,0-3,1.89c-.41.37-.81.73-1.24,1.07A17.25,17.25,0,0,0,0,17.24a25.26,25.26,0,0,0,2.32,10,50.2,50.2,0,0,0,7,11.26A60.94,60.94,0,0,0,22.59,51.26,26,26,0,0,0,34.78,56a17.61,17.61,0,0,0,10.47-2.17,31.5,31.5,0,0,0,5.63-4.58A3.62,3.62,0,0,0,51.34,43.87Z"/></g></g></svg>