<?xml version="1.0" encoding="utf-8"?>
<!-- Generator: Adobe Illustrator 25.4.1, SVG Export Plug-In . SVG Version: 6.00 Build 0)  -->
<svg version="1.1" id="Capa_1" xmlns="http://www.w3.org/2000/svg" xmlns:xlink="http://www.w3.org/1999/xlink" x="0px" y="0px"
	 viewBox="0 0 66.2 66.2" style="enable-background:new 0 0 66.2 66.2;" xml:space="preserve">
<style type="text/css">
	.st0{fill:#32CCD0;}
	.st1{fill:#A8D19C;}
	.st2{fill:#A3CF96;}
	.st3{fill:#74BB6A;}
	.st4{fill:#DDECD7;}
	.st5{fill:#83C177;}
	.st6{fill:#90C682;}
	.st7{fill:#96C888;}
	.st8{fill:#B2D6A6;}
	.st9{fill:#FBFBFB;}
</style>
<g id="b487e4ae-cc77-4fc5-9741-c427b36d53f3">
	<g id="be8db95e-24bc-4295-b8fa-2e5797931865">
		<path class="st0" d="M0,35.2V35c0.1-0.2,0.1-0.5,0-0.8v-2.4c0.1-0.1,0-0.3,0.1-0.5s0-0.2-0.1-0.3v-0.6c0.1-0.9,0.1-1.9,0.2-2.8
			C0.5,25.4,1.1,23.1,2,21c1.9-4.9,4.9-9.3,8.9-12.7c4.6-4.2,10.4-7,16.6-8C30,0,32.6-0.1,35.2,0.1c1.5,0,3,0.1,4.5,0.4
			c5.5,1.1,10.6,3.6,14.9,7.3c3.8,3.2,6.9,7.3,8.9,11.9c1.2,2.5,2,5.2,2.4,8c0.3,2.6,0.4,5.2,0.2,7.8c0,1.5-0.1,3-0.4,4.5
			c-1.1,5.5-3.6,10.7-7.3,15c-3.2,3.8-7.3,6.9-11.9,8.9c-2.2,1-4.5,1.7-6.9,2.2c-1.2,0.2-2.4,0.3-3.6,0.3c-0.2,0-0.3-0.1-0.5,0.1
			h-0.8c-0.2-0.1-0.4,0-0.7-0.1s-0.5-0.1-0.8,0.1h-0.8c-0.2-0.1-0.4,0-0.7-0.1s-0.5-0.1-0.8,0.1h-0.8c-1-0.2-1.9-0.1-2.9-0.2
			c-2.6-0.3-5.1-1-7.4-2.1c-1.6-0.7-3.2-1.5-4.7-2.4c-0.4-0.2-0.8-0.3-1.2-0.2c-1.4,0.4-2.7,0.9-4.1,1.3l-7,2.2C3,65,2.8,65,2.6,65
			C2.2,65,2,64.8,2,64.4c0-0.3,0.1-0.5,0.2-0.8c1.1-3.3,2.2-6.6,3.4-9.9c0.3-0.7,0.2-1.5-0.3-2.1C2.9,48.1,1.3,44.2,0.4,40
			c-0.2-1.3-0.3-2.7-0.3-4.1C0,35.7,0.1,35.5,0,35.2z"/>
		<path class="st1" d="M0,34.2c0.2,0.2,0.2,0.6,0,0.8V34.2z"/>
		<path class="st2" d="M31.3,66.2c0.2-0.2,0.5-0.1,0.8-0.1c0.1,0,0.1,0.1,0,0.1H31.3z"/>
		<path class="st3" d="M33.5,66.2c0.2-0.1,0.5-0.2,0.8-0.1c0.1,0,0.1,0.1,0,0.1H33.5z"/>
		<path class="st4" d="M0.1,35.9H0v-0.7C0.2,35.4,0.1,35.7,0.1,35.9z"/>
		<path class="st5" d="M32,66.2c0,0,0-0.1,0-0.1c0.2,0,0.5,0,0.7,0.1H32z"/>
		<path class="st6" d="M34.2,66.2c0,0,0-0.1,0-0.1c0.2,0,0.5-0.1,0.6,0.1H34.2z"/>
		<path class="st7" d="M0.1,31.4c0.1,0.2,0,0.4-0.1,0.5v-0.5C0,31.3,0.1,31.3,0.1,31.4z"/>
		<path class="st8" d="M0.1,31.4H0v-0.2C0.1,31.1,0.1,31.2,0.1,31.4z"/>
		<path class="st9" d="M44.1,51.7c-1.6,0-3.1-0.3-4.6-0.8c-4.3-1.2-8.3-3.2-11.9-5.8c-3.3-2.6-6.2-5.6-8.6-9c-1.5-1.9-2.8-4-3.9-6.2
			c-1.4-3-1.6-6.4-0.5-9.5c0.6-1.5,1.5-2.9,2.8-4c1.2-1.1,2.8-1.2,4.3-1.1c0.9,0,1.7,0.5,2,1.4c1.1,2.6,2.2,5.2,3.2,7.8
			c0.3,0.9,0,1.8-0.6,2.4c-0.6,0.8-1.3,1.5-1.9,2.2c-0.7,0.5-0.8,1.5-0.3,2.1c0,0,0.1,0.1,0.1,0.1c2.9,4.9,7.3,8.8,12.5,11
			c1.6,0.6,2.3,0.5,3.3-0.8c0.7-0.8,1.3-1.7,1.9-2.6c0.5-1,1.7-1.3,2.7-0.8c0,0,0.1,0,0.1,0.1c2.5,1.1,5,2.4,7.4,3.6
			c0.6,0.2,0.9,0.8,0.9,1.4c-0.1,4.3-1.7,6.6-6.4,8.2C45.8,51.5,44.9,51.7,44.1,51.7z"/>
	</g>
</g>
</svg>
