<svg xmlns="http://www.w3.org/2000/svg" viewBox="0 0 66.21 66.23"><defs><style>.b93e7ade-0e8a-46e0-9c1e-516a95e9cc7b{fill:#4daf50;}.e03e40e0-3538-4f0a-ae62-68b96fcc293e{fill:#a8d19c;}.b08c69e8-c792-4ebf-ab65-da19a9638ea4{fill:#a3cf96;}.f83e4a4c-de93-4a9c-88d0-66c8e342c31b{fill:#74bb6a;}.a80d0c18-4105-4cf8-965e-5a82e08f2562{fill:#ddecd7;}.b30cf3fe-bb1a-4fca-af7c-1edbb14b434f{fill:#83c177;}.e278a9b9-575f-4e4f-b3eb-34d0ac128e08{fill:#90c682;}.b783bf88-6b4c-4728-a8ee-afea17e07e9f{fill:#96c888;}.aa65fa99-6865-441b-bcca-9d65e7ae1480{fill:#b2d6a6;}.beb8460d-ceab-448e-b8e6-8f937c513b89{fill:#fbfbfb;}</style></defs><title>Recurso 1</title><g id="b487e4ae-cc77-4fc5-9741-c427b36d53f3" data-name="Capa 2"><g id="be8db95e-24bc-4295-b8fa-2e5797931865" data-name="Capa 1"><path class="b93e7ade-0e8a-46e0-9c1e-516a95e9cc7b" d="M0,35.23V35a1,1,0,0,0,0-.77V31.87c.12-.14,0-.31.06-.46s0-.22-.06-.31v-.65c.13-.92.13-1.85.22-2.78A25.61,25.61,0,0,1,2,21,32.88,32.88,0,0,1,10.86,8.27a31.88,31.88,0,0,1,16.58-8A40.09,40.09,0,0,1,35.19.08a28.51,28.51,0,0,1,4.52.37A33.08,33.08,0,0,1,54.63,7.73a33.39,33.39,0,0,1,8.93,11.86,27.72,27.72,0,0,1,2.37,8,45.58,45.58,0,0,1,.22,7.75,27.76,27.76,0,0,1-.36,4.46,33,33,0,0,1-7.29,15,33.48,33.48,0,0,1-11.86,8.93,31.27,31.27,0,0,1-6.87,2.2,29.14,29.14,0,0,1-3.62.31c-.17,0-.35-.06-.5.06h-.78c-.2-.13-.44,0-.66-.06s-.51-.07-.76.06h-.77c-.21-.13-.44,0-.66-.06s-.52-.07-.76.06h-.78c-1-.16-1.94-.11-2.91-.22a27.07,27.07,0,0,1-7.42-2.08,30.69,30.69,0,0,1-4.69-2.44,1.41,1.41,0,0,0-1.23-.17c-1.36.38-2.7.86-4.05,1.29l-7,2.23A2.82,2.82,0,0,1,2.6,65c-.4,0-.61-.17-.58-.58a4.3,4.3,0,0,1,.22-.8c1.07-3.32,2.25-6.6,3.37-9.9a2.12,2.12,0,0,0-.3-2.09A32,32,0,0,1,.41,40a32.55,32.55,0,0,1-.35-4.06C0,35.69.13,35.45,0,35.23Z"/><path class="e03e40e0-3538-4f0a-ae62-68b96fcc293e" d="M0,34.2A.58.58,0,0,1,0,35Z"/><path class="b08c69e8-c792-4ebf-ab65-da19a9638ea4" d="M31.26,66.23c.22-.24.5-.08.76-.11.1,0,.1.06,0,.11Z"/><path class="f83e4a4c-de93-4a9c-88d0-66c8e342c31b" d="M33.45,66.23a1.28,1.28,0,0,1,.79-.12c.08,0,.08.09,0,.12Z"/><path class="a80d0c18-4105-4cf8-965e-5a82e08f2562" d="M.11,35.89H0v-.65C.22,35.42.11,35.66.11,35.89Z"/><path class="b30cf3fe-bb1a-4fca-af7c-1edbb14b434f" d="M32,66.23s0-.07,0-.11a1,1,0,0,1,.66.11Z"/><path class="e278a9b9-575f-4e4f-b3eb-34d0ac128e08" d="M34.23,66.23a.49.49,0,0,1,0-.12c.21,0,.45-.08.63.12Z"/><path class="b783bf88-6b4c-4728-a8ee-afea17e07e9f" d="M.11,31.35a.57.57,0,0,1-.11.52v-.51C0,31.26.07,31.26.11,31.35Z"/><path class="aa65fa99-6865-441b-bcca-9d65e7ae1480" d="M.11,31.35H0V31.1C.12,31.14.12,31.25.11,31.35Z"/><path class="beb8460d-ceab-448e-b8e6-8f937c513b89" d="M44.08,51.66a15.3,15.3,0,0,1-4.62-.8,36,36,0,0,1-11.86-5.8,45.92,45.92,0,0,1-8.61-9,31.81,31.81,0,0,1-3.86-6.24,12.41,12.41,0,0,1-.54-9.53,10,10,0,0,1,2.75-4c1.24-1.12,2.76-1.16,4.32-1.1a2.05,2.05,0,0,1,2,1.37c1.06,2.61,2.17,5.2,3.25,7.79a2.27,2.27,0,0,1-.65,2.42c-.61.75-1.28,1.45-1.91,2.18a1.53,1.53,0,0,0-.18,2.26,26.1,26.1,0,0,0,12.51,11c1.58.64,2.27.48,3.3-.84.67-.85,1.29-1.72,1.93-2.59a2,2,0,0,1,2.8-.77c2.52,1.09,5,2.36,7.43,3.56A1.36,1.36,0,0,1,53,43c-.13,4.34-1.74,6.57-6.38,8.2A7,7,0,0,1,44.08,51.66Z"/></g></g></svg>